<svg width="60" height="61" viewBox="0 0 60 61" fill="none" xmlns="http://www.w3.org/2000/svg">
<rect y="0.0927734" width="60" height="60" rx="30" fill="#00875A" fill-opacity="0.08"/>
<g clip-path="url(#clip0_3227_162613)">
<path d="M22 18.9424H25C26.7397 18.9424 28.1504 20.3531 28.1504 22.0928V25.0928C28.1504 26.8324 26.7397 28.2432 25 28.2432H22C20.2603 28.2432 18.8496 26.8325 18.8496 25.0928V22.0928C18.8496 20.3531 20.2603 18.9424 22 18.9424Z" stroke="#00714C" strokeWidth="1.7"/>
<path d="M35 18.9424H38C39.7397 18.9424 41.1504 20.3531 41.1504 22.0928V25.0928C41.1504 26.8324 39.7397 28.2432 38 28.2432H35C33.2603 28.2432 31.8496 26.8324 31.8496 25.0928V22.0928C31.8496 20.3531 33.2603 18.9424 35 18.9424Z" stroke="#00714C" strokeWidth="1.7"/>
<path d="M22 31.9424H25C26.7397 31.9424 28.1504 33.3531 28.1504 35.0928V38.0928C28.1504 39.8324 26.7397 41.2432 25 41.2432H22C20.2603 41.2432 18.8496 39.8325 18.8496 38.0928V35.0928C18.8496 33.3531 20.2603 31.9424 22 31.9424Z" stroke="#00714C" strokeWidth="1.7"/>
<path d="M35 31.9424H38C39.7397 31.9424 41.1504 33.3531 41.1504 35.0928V38.0928C41.1504 39.8325 39.7397 41.2432 38 41.2432H35C33.2603 41.2432 31.8496 39.8325 31.8496 38.0928V35.0928C31.8496 33.3531 33.2603 31.9424 35 31.9424Z" stroke="#00714C" strokeWidth="1.7"/>
</g>
<defs>
<clipPath id="clip0_3227_162613">
<rect width="24" height="24" fill="white" transform="translate(18 18.0928)"/>
</clipPath>
</defs>
</svg>
