<svg width="60" height="61" viewBox="0 0 60 61" fill="none" xmlns="http://www.w3.org/2000/svg">
<path d="M35.5 23.0928C35.8978 23.0928 36.2794 23.2508 36.5607 23.5321C36.842 23.8134 37 24.1949 37 24.5928C37 24.9906 36.842 25.3721 36.5607 25.6534C36.2794 25.9347 35.8978 26.0928 35.5 26.0928C35.1022 26.0928 34.7206 25.9347 34.4393 25.6534C34.158 25.3721 34 24.9906 34 24.5928C34 24.1949 34.158 23.8134 34.4393 23.5321C34.7206 23.2508 35.1022 23.0928 35.5 23.0928Z" stroke="#1A1A1A" stroke-width="1.7" stroke-linecap="round" stroke-linejoin="round"/>
<path d="M20.7739 29.2372C19.7709 30.3572 19.7499 32.0472 20.6699 33.2372C22.4569 35.557 24.5361 37.6362 26.8559 39.4232C28.0459 40.3432 29.7359 40.3222 30.8559 39.3192C33.8835 36.6111 36.7284 33.7054 39.3719 30.6212C39.6388 30.3145 39.8031 29.932 39.8419 29.5272C40.0059 27.7312 40.3449 22.5572 38.9399 21.1532C37.5349 19.7492 32.3619 20.0872 30.5659 20.2522C30.1611 20.291 29.7786 20.4553 29.4719 20.7222C26.3878 23.3655 23.4821 26.21 20.7739 29.2372Z" stroke="#1A1A1A" stroke-width="1.7" stroke-linecap="round" stroke-linejoin="round"/>
<path d="M31.7888 30.4601C31.8108 30.0581 31.9228 29.3251 31.3128 28.7671M31.3128 28.7671C31.0801 28.5649 30.809 28.4115 30.5158 28.3161C29.2588 27.8731 27.7158 29.3551 28.8078 30.7121C29.3948 31.4421 29.8478 31.6661 29.8038 32.4941C29.7738 33.0761 29.2018 33.6851 28.4478 33.9171C27.7928 34.1191 27.0698 33.8521 26.6128 33.3411C26.0538 32.7171 26.1108 32.1291 26.1058 31.8731M31.3128 28.7671L32.0008 28.0791M26.6608 33.4191L26.0078 34.0721" stroke="#1A1A1A" stroke-width="1.7" stroke-linecap="round" stroke-linejoin="round"/>
</svg>
