<svg width="60" height="60" viewBox="0 0 60 60" fill="none" xmlns="http://www.w3.org/2000/svg">
<path d="M3.76172 25.0527C4.47036 25.8579 5.64357 26.2897 6.83301 25.8438H6.83398C6.94318 25.8032 7.14942 25.6776 7.46289 25.4561C7.7732 25.2367 8.18071 24.9287 8.6875 24.5303C9.70101 23.7334 11.11 22.5771 12.9355 21.0498H12.9365C14.6545 19.6212 18.6867 16.3122 22.6826 13.0938C23.1886 12.6871 23.8075 12.181 24.3994 11.6953L25.9541 10.418C27.2374 9.34257 28.126 8.63494 28.7578 8.19629C29.0737 7.97702 29.328 7.82295 29.5371 7.72363C29.7456 7.62465 29.9159 7.57715 30.0615 7.57715C30.1529 7.5772 30.2592 7.60388 30.3867 7.65723C30.5151 7.71094 30.6707 7.7943 30.8613 7.91211C31.2425 8.14768 31.7736 8.52773 32.5273 9.10742C34.0362 10.2679 36.4461 12.2362 40.3506 15.4629L40.3516 15.4619C41.2563 16.2038 42.9545 17.6137 44.165 18.5713L44.166 18.5723C46.6791 20.6153 46.8602 20.76 49.7168 23.1104C50.8913 24.068 52.1904 25.0953 52.5869 25.3838C53.9785 26.3702 55.6543 26.1199 56.5449 24.793L56.5459 24.792C56.7236 24.5343 56.8207 24.3466 56.8691 24.1191C56.9182 23.8886 56.9186 23.6106 56.8916 23.1689C56.8471 22.5909 56.7551 22.2212 56.4287 21.7998C56.0958 21.3701 55.5184 20.8846 54.4863 20.0879L54.4844 20.0859C53.8868 19.597 51.9559 18.0636 50.2178 16.6514L50.2168 16.6504L47.0713 14.0654L47.0391 14.0391L47.0381 13.998L46.9121 9.80371C46.8759 8.50884 46.8604 7.56235 46.8125 6.86816C46.7644 6.1705 46.6833 5.74691 46.5264 5.48535C46.3769 5.23648 46.1514 5.12367 45.7656 5.0752C45.3725 5.02585 44.8386 5.0459 44.0908 5.0459C43.4072 5.0459 42.8947 5.05032 42.5059 5.0918C42.1161 5.13338 41.8658 5.21154 41.6953 5.3457C41.5276 5.47769 41.4238 5.67474 41.3545 5.98926C41.2848 6.30578 41.2521 6.72719 41.2158 7.29395L41.1074 8.93945L41.0967 9.10547L40.9629 9.00586L39.9512 8.24609L39.9502 8.24512C39.0992 7.59327 37.5788 6.38139 32.3184 2.11523L32.3174 2.11328C31.9614 1.8107 31.4261 1.45373 31.1602 1.31152C30.8521 1.15749 30.4158 1.082 29.9707 1.09082C29.5257 1.09968 29.0836 1.19336 28.7656 1.36523C28.6264 1.44418 28.241 1.72805 27.7236 2.12793C27.2068 2.52737 26.5651 3.03764 25.9238 3.56152C24.6595 4.60914 23.3026 5.71318 22.9385 5.98633C22.2716 6.491 20.5923 7.88064 16.5049 11.2627C15.2946 12.2562 14.0269 13.2887 13.6631 13.5615H13.6621C13.3212 13.8128 11.7689 15.0767 10.2129 16.3613L5.58398 20.1582V20.1592L4.85059 20.7666C4.61845 20.9653 4.40205 21.1568 4.21191 21.3301C4.02167 21.5034 3.85792 21.6584 3.73242 21.7842C3.60514 21.9117 3.5208 22.0054 3.48535 22.0566C2.81767 23.0825 3.054 24.2486 3.76172 25.0527Z" fill="#00875A" stroke="#00875A" stroke-width="0.180798"/>
<path d="M30.0791 22.2637C31.1916 22.2637 32.2261 22.5967 33.0898 23.167C32.06 23.2335 31.2451 24.0881 31.2451 25.1348C31.2453 26.2246 32.1289 27.1084 33.2188 27.1084C34.1402 27.1084 34.9116 26.4759 35.1289 25.6221C35.4014 26.2722 35.5517 26.9863 35.5518 27.7354C35.5518 30.7576 33.1013 33.208 30.0791 33.208C27.057 33.2078 24.6074 30.7575 24.6074 27.7354C24.6076 24.7134 27.0572 22.2639 30.0791 22.2637Z" fill="#1A1A1A"/>
<circle cx="30.08" cy="27.7372" r="10.3959" stroke="#1A1A1A" stroke-width="2.71196"/>
<path d="M29.4814 57.9502C30.0168 58.0467 30.456 58.0245 31.0742 57.7715C31.6995 57.5156 32.506 57.0232 33.7725 56.1729C41.3168 51.1373 46.3101 45.0053 48.5986 38.0137C49.4505 35.395 49.7908 33.7311 49.9473 31.2422L50.0039 30.1191C50.0491 28.7891 50.0671 28.0535 50.0381 27.6094C50.0236 27.3882 49.9978 27.2454 49.9609 27.1406C49.9249 27.0384 49.8764 26.9678 49.8096 26.8926C49.4354 26.4718 48.8871 26.4821 48.582 26.8418L48.5244 26.9189C48.4606 27.0244 48.3874 27.2365 48.3203 27.5049C48.2869 27.6387 48.2549 27.7841 48.2275 27.9326L48.1592 28.3799C48.0055 29.6949 47.4208 31.7711 46.7646 33.2979L46.6328 33.5957C45.0129 37.2225 41.7584 40.6251 38.1699 42.4697L37.8213 42.6436C35.5206 43.7513 33.474 44.2357 30.7295 44.292L30.1709 44.2979C26.5411 44.316 23.7576 43.6077 21.1016 42.0068C20.8128 41.8354 20.5423 41.6773 20.3398 41.5625C20.2386 41.5051 20.155 41.4586 20.0947 41.4268C20.0645 41.4108 20.0408 41.3992 20.0244 41.3916C20.0178 41.3885 20.0128 41.387 20.0098 41.3857C20.0125 41.3864 20.0191 41.3867 20.0273 41.3867C20.0079 41.3866 19.9915 41.3814 19.9824 41.3779C19.9718 41.3739 19.9616 41.3684 19.9521 41.3633C19.9333 41.353 19.9116 41.3392 19.8887 41.3232C19.8422 41.2908 19.7822 41.2452 19.7148 41.1904C19.58 41.0808 19.4076 40.9305 19.2266 40.7676C17.053 38.8566 15.5132 37.1455 14.3926 35.2656C13.4117 33.6202 12.7546 31.8488 12.2715 29.707L12.0742 28.7666C11.9751 28.2708 11.8673 27.7938 11.7686 27.4258C11.7191 27.2415 11.6726 27.0852 11.6309 26.9688C11.61 26.9106 11.5902 26.8634 11.5732 26.8281C11.5553 26.7909 11.5435 26.774 11.5391 26.7695L11.5381 26.7705L11.5332 26.7646C11.4126 26.6215 11.21 26.5535 10.9844 26.5742C10.7879 26.5923 10.5828 26.6777 10.418 26.8262L10.3496 26.8936C10.2832 26.9684 10.2351 27.0388 10.1992 27.1406C10.1623 27.2454 10.1365 27.3882 10.1221 27.6094C10.0931 28.0536 10.111 28.7896 10.1562 30.1201C10.3658 36.1266 12.1136 41.2015 15.6484 46.168L15.9961 46.6484C16.6432 47.5202 17.8783 48.8909 19.1816 50.2236C20.4848 51.5561 21.8507 52.8453 22.7588 53.5557H22.7598C23.878 54.4394 25.3986 55.5095 26.7236 56.374C27.3861 56.8062 27.9992 57.1859 28.4873 57.4658C28.7314 57.6058 28.9432 57.7207 29.1143 57.8037C29.2876 57.8878 29.4109 57.9367 29.4814 57.9502Z" fill="#00875A" stroke="#00875A" stroke-width="0.180798"/>
</svg>
